<svg width="400" height="50" viewBox="0 0 400 50" fill="none" xmlns="http://www.w3.org/2000/svg">
<path d="M37.5 30.5H10.9V23.9H45.2C44.3 21.1 41.4 18.5 36.3 18.5H11.4C5.7 18.5 2.4 20.6 2.4 25.2V30.1C2.4 34.1 5.8 36.4 10.8 36.4H37.7V43.4H1.5C2.4 47.2 5.3 49.2 10.5 49.2H37.6C43.3 49.2 46.1 47 46.1 42.3V37.4C46.1 33.1 42.8 30.8 37.5 30.5Z" fill="#f2f2f7"/>
<path d="M91.9137 18.681L59.1146 18.4374L58.8866 49.1366L68.1864 49.2056L68.274 37.406L92.4733 37.5857C99.1731 37.6354 102.89 35.363 102.93 29.9631L102.955 26.5632C102.893 21.5626 98.7135 18.7315 91.9137 18.681ZM94.8408 28.503C94.8245 30.703 94.4156 31.8999 90.8157 31.8732L68.3163 31.7061L68.4757 23.7071L90.4751 23.8705C94.475 23.9002 94.9661 25.1039 94.9505 27.2038L94.9408 28.5038L94.8408 28.503Z" fill="#f2f2f7"/>
<path d="M129.9 17.3L124.3 24.2L133.8 37.3H114L109.1 42.5H137.7L142.6 49.3H153.6L129.9 17.3Z" fill="#f2f2f7"/>
<path d="M171.4 23.9H206.2C205.3 20.3 201.8 18.5 196.8 18.5H170.8C166.3 18.5 162 20.3 162 25.2V42.4C162 47.3 166.3 49.1 170.8 49.1H197.1C203.1 49.1 205.2 47.4 206.2 43.3H171.4V23.9Z" fill="#f2f2f7"/>
<path d="M228.3 43.5V34.1H247V28.9H218.9V49.3H260.4V43.5H228.3Z" fill="#f2f2f7"/>
<path d="M261.8 18.6H219.9V24H261.8V18.6Z" fill="#f2f2f7"/>
<path d="M287.6 18.6H273L290.2 31.2C292.7 29.5 295.6 27.7 298.2 26.2L287.6 18.6Z" fill="#f2f2f7"/>
<path d="M308.8 34.3C306.3 36 303.8 37.9 301.4 39.7L314.4 49.2H329.1L308.8 34.3Z" fill="#f2f2f7"/>
<path d="M399 0.700001C319 5.3 282 39.5 273.7 47.6L272 49.2H286.8C326.8 9.1 384.3 2 399 0.700001Z" fill="#f2f2f7"/>
</svg>
